<?xml version="1.0" encoding="utf-8"?>
<!-- Generator: Adobe Illustrator 25.2.1, SVG Export Plug-In . SVG Version: 6.00 Build 0)  -->
<svg version="1.1" id="Layer_1" xmlns="http://www.w3.org/2000/svg" xmlns:xlink="http://www.w3.org/1999/xlink" x="0px" y="0px"
	 viewBox="0 0 1920 1080" style="enable-background:new 0 0 1920 1080;" xml:space="preserve">
<style type="text/css">
	.st0{fill:none;}
	.st1{fill:#FFFFFF;}
</style>
<rect x="3.2" y="1.5" class="st0" width="1916.8" height="1078.5"/>
<g>
	<path class="st1" d="M628.9,1010.2c-6.4,0-12.8-0.3-19.1-1c-23.1-2.5-45.3-9.4-65.9-20.5l-0.2-0.1c-21.4-13.7-42.1-29-61.5-45.3
		c-12.9-10.8-25.5-22.3-37.4-34.2l-82.2-83.7c-21.7-19.4-43.8-37-65.7-52.2c-11.2-7.7-19.9-13.2-29.1-18.2
		c-14.3-7.9-29.3-14.6-44.7-19.9c-24-7.6-48.6-14.6-73.1-20.7c-17.6-4.4-35.4-8.4-53.2-11.9l-93.5-22l1.1-4.9l93.4,22
		c17.7,3.5,35.7,7.5,53.3,11.9c24.6,6.1,49.3,13.1,73.5,20.8c15.7,5.5,31,12.3,45.6,20.3c9.4,5.1,18.2,10.7,29.5,18.5
		c22.1,15.3,44.4,33,66.3,52.6l0.1,0.1l82.2,83.7c11.8,11.7,24.3,23.2,37.1,33.9c19.3,16.2,39.8,31.2,60.9,44.9
		c20,10.8,41.6,17.5,64,19.9c18.6,2,37.3,1,55.7-3c19.1-3.5,37.5-9.5,54.9-17.9c17.8-8.5,34.3-19.5,49.1-32.5
		c22.4-18.5,43.3-39.1,62-61.2c21.1-24.9,39.9-52,55.7-80.6c12.7-23.7,24.5-48.2,35.1-73c8.5-19.9,16.5-40.4,23.6-60.9
		c8.4-23.4,14.1-47.8,16.7-72.5c3.1-28.5,2.2-57.3-2.5-85.6c-1.3-8.5-2.9-17.2-4.6-25.6c-1.8-9.1-3.9-18.2-6.1-27.2l-43.4-149.1
		c-6.1-24.4-11.6-49.3-16.2-73.9c-6.8-36-12.2-72.8-16-109.3c-2.3-26.8-7-53.5-13.9-79.4c-4.4-16.6-9.8-33.1-16.1-49.1l4.7-1.8
		c6.3,16.2,11.8,32.9,16.3,49.6c7,26.2,11.7,53.2,14,80.3c3.8,36.3,9.2,73,16,108.9c4.7,24.6,10.1,49.3,16.1,73.6L954.9,463
		c2.2,9.1,4.3,18.3,6.2,27.5c1.7,8.5,3.3,17.2,4.6,25.8c4.8,28.8,5.7,58,2.6,87c-2.7,25.1-8.4,49.8-17,73.6
		c-7.1,20.6-15.1,41.2-23.7,61.2c-10.6,24.9-22.5,49.5-35.3,73.4c-16,28.9-35,56.3-56.3,81.5c-19,22.3-40,43.1-62.6,61.8
		c-15.1,13.3-32,24.4-50.2,33.2c-17.8,8.6-36.7,14.7-56.1,18.2C654.4,1008.8,641.7,1010.2,628.9,1010.2z"/>
</g>
<g>
	<path class="st1" d="M628.8,1043.3c-3,0-6.1-0.1-9.2-0.2c-23-1.1-45.3-6.5-66.3-16l-0.2-0.1c-18.7-10-36.8-21.4-53.9-33.9
		c-16-11.7-31.5-24.5-45.9-38.2c-23.5-23.5-47.2-47.2-70.5-70.8c-11.8-11.9-23.7-24-35.5-36c-6.3-6.6-13-13-19.8-19
		c-7.7-6.8-15.8-13.3-24.1-19.3l-0.1-0.1c-19.3-15.5-40.2-29-62.1-40.3c-17.5-9-36-16.7-54.8-22.8c-34.6-11.1-70.1-20.9-105.5-29
		c-25.6-5.9-51.8-11.2-77.7-15.5l0.8-4.9c26,4.4,52.3,9.7,78,15.6c35.5,8.2,71.2,18,105.9,29.2c19.1,6.2,37.7,14,55.5,23.1
		c22.2,11.4,43.4,25.2,62.9,40.8c8.4,6.1,16.6,12.7,24.4,19.5c6.9,6.1,13.7,12.6,20.1,19.3c11.7,12,23.7,24.1,35.5,36
		c23.3,23.5,47,47.3,70.5,70.7c14.2,13.5,29.5,26.2,45.4,37.7c16.9,12.3,34.8,23.6,53.3,33.5c20.4,9.2,42,14.5,64.4,15.6
		c22.3,1.1,44.3-1.9,65.5-9.1l0.1,0c15.6-4.3,30.8-10.1,45.3-17.2c14.6-7.2,28.5-15.8,41.5-25.5c16.2-11.6,31.5-24.5,45.7-38.3
		c17.8-17.4,34-36.6,48.2-57.1c12.2-17.6,24-35.8,34.9-54.2c15.3-25.9,29.5-53,42-80.4c9.5-21.1,18-42.9,25.2-64.8
		c5.4-16.3,10.2-33.1,14.2-49.9c5.1-22.5,7.7-45.6,7.8-68.6c0.1-18.6-1.4-37.4-4.6-55.7l-8.4-45.9c-2.2-9.1-4.5-18.2-6.9-27.2
		c-5.2-19.7-11-39.6-17.1-59.1l-28.6-94.6c-4-16.5-7.6-33.3-10.7-49.9c-3.5-18.6-6.6-37.5-9.2-56.3c-1.3-12.5-2.8-25.1-4.3-37.6
		c-2.8-22.2-5.4-37.9-9.9-66.3c-5.1-31.9-7.4-43.5-12.3-58.4c-2.2-6.8-4.8-13.6-7.6-20.1l4.6-2c2.8,6.7,5.4,13.6,7.7,20.5
		c5.1,15.3,7.3,27,12.5,59.2c4.6,28.5,7.1,44.2,10,66.5c1.6,12.5,3.1,25.2,4.3,37.6c2.5,18.6,5.6,37.4,9.2,56
		c3.2,16.5,6.8,33.2,10.7,49.6l28.6,94.4c6.1,19.5,11.9,39.5,17.1,59.3c2.4,9,4.7,18.2,6.9,27.4l0,0.1l8.4,46
		c3.2,18.7,4.7,37.7,4.6,56.6c-0.1,23.4-2.8,46.9-8,69.7c-4.1,16.9-8.9,33.8-14.4,50.3c-7.3,22.1-15.8,44.1-25.4,65.4
		c-12.6,27.6-26.8,54.8-42.3,80.9c-11,18.5-22.8,36.9-35.1,54.5c-14.4,20.7-30.8,40.2-48.8,57.8c-14.4,14-29.9,27.1-46.2,38.8
		c-13.2,9.9-27.4,18.7-42.2,26c-14.7,7.3-30.2,13.1-46.1,17.5C668.1,1040.1,648.6,1043.3,628.8,1043.3z"/>
</g>
</svg>
